# Procedural UV sphere 32x16
v 0.000000 1.000000 0.000000
v 0.000000 1.000000 0.000000
v 0.000000 1.000000 0.000000
v 0.000000 1.000000 0.000000
v 0.000000 1.000000 0.000000
v 0.000000 1.000000 0.000000
v 0.000000 1.000000 0.000000
v 0.000000 1.000000 0.000000
v 0.000000 1.000000 0.000000
v -0.000000 1.000000 0.000000
v -0.000000 1.000000 0.000000
v -0.000000 1.000000 0.000000
v -0.000000 1.000000 0.000000
v -0.000000 1.000000 0.000000
v -0.000000 1.000000 0.000000
v -0.000000 1.000000 0.000000
v -0.000000 1.000000 0.000000
v -0.000000 1.000000 -0.000000
v -0.000000 1.000000 -0.000000
v -0.000000 1.000000 -0.000000
v -0.000000 1.000000 -0.000000
v -0.000000 1.000000 -0.000000
v -0.000000 1.000000 -0.000000
v -0.000000 1.000000 -0.000000
v -0.000000 1.000000 -0.000000
v 0.000000 1.000000 -0.000000
v 0.000000 1.000000 -0.000000
v 0.000000 1.000000 -0.000000
v 0.000000 1.000000 -0.000000
v 0.000000 1.000000 -0.000000
v 0.000000 1.000000 -0.000000
v 0.000000 1.000000 -0.000000
v 0.195090 0.980785 0.000000
v 0.191342 0.980785 0.038060
v 0.180240 0.980785 0.074658
v 0.162212 0.980785 0.108386
v 0.137950 0.980785 0.137950
v 0.108386 0.980785 0.162212
v 0.074658 0.980785 0.180240
v 0.038060 0.980785 0.191342
v 0.000000 0.980785 0.195090
v -0.038060 0.980785 0.191342
v -0.074658 0.980785 0.180240
v -0.108386 0.980785 0.162212
v -0.137950 0.980785 0.137950
v -0.162212 0.980785 0.108386
v -0.180240 0.980785 0.074658
v -0.191342 0.980785 0.038060
v -0.195090 0.980785 0.000000
v -0.191342 0.980785 -0.038060
v -0.180240 0.980785 -0.074658
v -0.162212 0.980785 -0.108386
v -0.137950 0.980785 -0.137950
v -0.108386 0.980785 -0.162212
v -0.074658 0.980785 -0.180240
v -0.038060 0.980785 -0.191342
v -0.000000 0.980785 -0.195090
v 0.038060 0.980785 -0.191342
v 0.074658 0.980785 -0.180240
v 0.108386 0.980785 -0.162212
v 0.137950 0.980785 -0.137950
v 0.162212 0.980785 -0.108386
v 0.180240 0.980785 -0.074658
v 0.191342 0.980785 -0.038060
v 0.382683 0.923880 0.000000
v 0.375330 0.923880 0.074658
v 0.353553 0.923880 0.146447
v 0.318190 0.923880 0.212608
v 0.270598 0.923880 0.270598
v 0.212608 0.923880 0.318190
v 0.146447 0.923880 0.353553
v 0.074658 0.923880 0.375330
v 0.000000 0.923880 0.382683
v -0.074658 0.923880 0.375330
v -0.146447 0.923880 0.353553
v -0.212608 0.923880 0.318190
v -0.270598 0.923880 0.270598
v -0.318190 0.923880 0.212608
v -0.353553 0.923880 0.146447
v -0.375330 0.923880 0.074658
v -0.382683 0.923880 0.000000
v -0.375330 0.923880 -0.074658
v -0.353553 0.923880 -0.146447
v -0.318190 0.923880 -0.212608
v -0.270598 0.923880 -0.270598
v -0.212608 0.923880 -0.318190
v -0.146447 0.923880 -0.353553
v -0.074658 0.923880 -0.375330
v -0.000000 0.923880 -0.382683
v 0.074658 0.923880 -0.375330
v 0.146447 0.923880 -0.353553
v 0.212608 0.923880 -0.318190
v 0.270598 0.923880 -0.270598
v 0.318190 0.923880 -0.212608
v 0.353553 0.923880 -0.146447
v 0.375330 0.923880 -0.074658
v 0.555570 0.831470 0.000000
v 0.544895 0.831470 0.108386
v 0.513280 0.831470 0.212608
v 0.461940 0.831470 0.308658
v 0.392847 0.831470 0.392847
v 0.308658 0.831470 0.461940
v 0.212608 0.831470 0.513280
v 0.108386 0.831470 0.544895
v 0.000000 0.831470 0.555570
v -0.108386 0.831470 0.544895
v -0.212608 0.831470 0.513280
v -0.308658 0.831470 0.461940
v -0.392847 0.831470 0.392847
v -0.461940 0.831470 0.308658
v -0.513280 0.831470 0.212608
v -0.544895 0.831470 0.108386
v -0.555570 0.831470 0.000000
v -0.544895 0.831470 -0.108386
v -0.513280 0.831470 -0.212608
v -0.461940 0.831470 -0.308658
v -0.392847 0.831470 -0.392847
v -0.308658 0.831470 -0.461940
v -0.212608 0.831470 -0.513280
v -0.108386 0.831470 -0.544895
v -0.000000 0.831470 -0.555570
v 0.108386 0.831470 -0.544895
v 0.212608 0.831470 -0.513280
v 0.308658 0.831470 -0.461940
v 0.392847 0.831470 -0.392847
v 0.461940 0.831470 -0.308658
v 0.513280 0.831470 -0.212608
v 0.544895 0.831470 -0.108386
v 0.707107 0.707107 0.000000
v 0.693520 0.707107 0.137950
v 0.653281 0.707107 0.270598
v 0.587938 0.707107 0.392847
v 0.500000 0.707107 0.500000
v 0.392847 0.707107 0.587938
v 0.270598 0.707107 0.653281
v 0.137950 0.707107 0.693520
v 0.000000 0.707107 0.707107
v -0.137950 0.707107 0.693520
v -0.270598 0.707107 0.653281
v -0.392847 0.707107 0.587938
v -0.500000 0.707107 0.500000
v -0.587938 0.707107 0.392847
v -0.653281 0.707107 0.270598
v -0.693520 0.707107 0.137950
v -0.707107 0.707107 0.000000
v -0.693520 0.707107 -0.137950
v -0.653281 0.707107 -0.270598
v -0.587938 0.707107 -0.392847
v -0.500000 0.707107 -0.500000
v -0.392847 0.707107 -0.587938
v -0.270598 0.707107 -0.653281
v -0.137950 0.707107 -0.693520
v -0.000000 0.707107 -0.707107
v 0.137950 0.707107 -0.693520
v 0.270598 0.707107 -0.653281
v 0.392847 0.707107 -0.587938
v 0.500000 0.707107 -0.500000
v 0.587938 0.707107 -0.392847
v 0.653281 0.707107 -0.270598
v 0.693520 0.707107 -0.137950
v 0.831470 0.555570 0.000000
v 0.815493 0.555570 0.162212
v 0.768178 0.555570 0.318190
v 0.691342 0.555570 0.461940
v 0.587938 0.555570 0.587938
v 0.461940 0.555570 0.691342
v 0.318190 0.555570 0.768178
v 0.162212 0.555570 0.815493
v 0.000000 0.555570 0.831470
v -0.162212 0.555570 0.815493
v -0.318190 0.555570 0.768178
v -0.461940 0.555570 0.691342
v -0.587938 0.555570 0.587938
v -0.691342 0.555570 0.461940
v -0.768178 0.555570 0.318190
v -0.815493 0.555570 0.162212
v -0.831470 0.555570 0.000000
v -0.815493 0.555570 -0.162212
v -0.768178 0.555570 -0.318190
v -0.691342 0.555570 -0.461940
v -0.587938 0.555570 -0.587938
v -0.461940 0.555570 -0.691342
v -0.318190 0.555570 -0.768178
v -0.162212 0.555570 -0.815493
v -0.000000 0.555570 -0.831470
v 0.162212 0.555570 -0.815493
v 0.318190 0.555570 -0.768178
v 0.461940 0.555570 -0.691342
v 0.587938 0.555570 -0.587938
v 0.691342 0.555570 -0.461940
v 0.768178 0.555570 -0.318190
v 0.815493 0.555570 -0.162212
v 0.923880 0.382683 0.000000
v 0.906127 0.382683 0.180240
v 0.853553 0.382683 0.353553
v 0.768178 0.382683 0.513280
v 0.653281 0.382683 0.653281
v 0.513280 0.382683 0.768178
v 0.353553 0.382683 0.853553
v 0.180240 0.382683 0.906127
v 0.000000 0.382683 0.923880
v -0.180240 0.382683 0.906127
v -0.353553 0.382683 0.853553
v -0.513280 0.382683 0.768178
v -0.653281 0.382683 0.653281
v -0.768178 0.382683 0.513280
v -0.853553 0.382683 0.353553
v -0.906127 0.382683 0.180240
v -0.923880 0.382683 0.000000
v -0.906127 0.382683 -0.180240
v -0.853553 0.382683 -0.353553
v -0.768178 0.382683 -0.513280
v -0.653281 0.382683 -0.653281
v -0.513280 0.382683 -0.768178
v -0.353553 0.382683 -0.853553
v -0.180240 0.382683 -0.906127
v -0.000000 0.382683 -0.923880
v 0.180240 0.382683 -0.906127
v 0.353553 0.382683 -0.853553
v 0.513280 0.382683 -0.768178
v 0.653281 0.382683 -0.653281
v 0.768178 0.382683 -0.513280
v 0.853553 0.382683 -0.353553
v 0.906127 0.382683 -0.180240
v 0.980785 0.195090 0.000000
v 0.961940 0.195090 0.191342
v 0.906127 0.195090 0.375330
v 0.815493 0.195090 0.544895
v 0.693520 0.195090 0.693520
v 0.544895 0.195090 0.815493
v 0.375330 0.195090 0.906127
v 0.191342 0.195090 0.961940
v 0.000000 0.195090 0.980785
v -0.191342 0.195090 0.961940
v -0.375330 0.195090 0.906127
v -0.544895 0.195090 0.815493
v -0.693520 0.195090 0.693520
v -0.815493 0.195090 0.544895
v -0.906127 0.195090 0.375330
v -0.961940 0.195090 0.191342
v -0.980785 0.195090 0.000000
v -0.961940 0.195090 -0.191342
v -0.906127 0.195090 -0.375330
v -0.815493 0.195090 -0.544895
v -0.693520 0.195090 -0.693520
v -0.544895 0.195090 -0.815493
v -0.375330 0.195090 -0.906127
v -0.191342 0.195090 -0.961940
v -0.000000 0.195090 -0.980785
v 0.191342 0.195090 -0.961940
v 0.375330 0.195090 -0.906127
v 0.544895 0.195090 -0.815493
v 0.693520 0.195090 -0.693520
v 0.815493 0.195090 -0.544895
v 0.906127 0.195090 -0.375330
v 0.961940 0.195090 -0.191342
v 1.000000 0.000000 0.000000
v 0.980785 0.000000 0.195090
v 0.923880 0.000000 0.382683
v 0.831470 0.000000 0.555570
v 0.707107 0.000000 0.707107
v 0.555570 0.000000 0.831470
v 0.382683 0.000000 0.923880
v 0.195090 0.000000 0.980785
v 0.000000 0.000000 1.000000
v -0.195090 0.000000 0.980785
v -0.382683 0.000000 0.923880
v -0.555570 0.000000 0.831470
v -0.707107 0.000000 0.707107
v -0.831470 0.000000 0.555570
v -0.923880 0.000000 0.382683
v -0.980785 0.000000 0.195090
v -1.000000 0.000000 0.000000
v -0.980785 0.000000 -0.195090
v -0.923880 0.000000 -0.382683
v -0.831470 0.000000 -0.555570
v -0.707107 0.000000 -0.707107
v -0.555570 0.000000 -0.831470
v -0.382683 0.000000 -0.923880
v -0.195090 0.000000 -0.980785
v -0.000000 0.000000 -1.000000
v 0.195090 0.000000 -0.980785
v 0.382683 0.000000 -0.923880
v 0.555570 0.000000 -0.831470
v 0.707107 0.000000 -0.707107
v 0.831470 0.000000 -0.555570
v 0.923880 0.000000 -0.382683
v 0.980785 0.000000 -0.195090
v 0.980785 -0.195090 0.000000
v 0.961940 -0.195090 0.191342
v 0.906127 -0.195090 0.375330
v 0.815493 -0.195090 0.544895
v 0.693520 -0.195090 0.693520
v 0.544895 -0.195090 0.815493
v 0.375330 -0.195090 0.906127
v 0.191342 -0.195090 0.961940
v 0.000000 -0.195090 0.980785
v -0.191342 -0.195090 0.961940
v -0.375330 -0.195090 0.906127
v -0.544895 -0.195090 0.815493
v -0.693520 -0.195090 0.693520
v -0.815493 -0.195090 0.544895
v -0.906127 -0.195090 0.375330
v -0.961940 -0.195090 0.191342
v -0.980785 -0.195090 0.000000
v -0.961940 -0.195090 -0.191342
v -0.906127 -0.195090 -0.375330
v -0.815493 -0.195090 -0.544895
v -0.693520 -0.195090 -0.693520
v -0.544895 -0.195090 -0.815493
v -0.375330 -0.195090 -0.906127
v -0.191342 -0.195090 -0.961940
v -0.000000 -0.195090 -0.980785
v 0.191342 -0.195090 -0.961940
v 0.375330 -0.195090 -0.906127
v 0.544895 -0.195090 -0.815493
v 0.693520 -0.195090 -0.693520
v 0.815493 -0.195090 -0.544895
v 0.906127 -0.195090 -0.375330
v 0.961940 -0.195090 -0.191342
v 0.923880 -0.382683 0.000000
v 0.906127 -0.382683 0.180240
v 0.853553 -0.382683 0.353553
v 0.768178 -0.382683 0.513280
v 0.653281 -0.382683 0.653281
v 0.513280 -0.382683 0.768178
v 0.353553 -0.382683 0.853553
v 0.180240 -0.382683 0.906127
v 0.000000 -0.382683 0.923880
v -0.180240 -0.382683 0.906127
v -0.353553 -0.382683 0.853553
v -0.513280 -0.382683 0.768178
v -0.653281 -0.382683 0.653281
v -0.768178 -0.382683 0.513280
v -0.853553 -0.382683 0.353553
v -0.906127 -0.382683 0.180240
v -0.923880 -0.382683 0.000000
v -0.906127 -0.382683 -0.180240
v -0.853553 -0.382683 -0.353553
v -0.768178 -0.382683 -0.513280
v -0.653281 -0.382683 -0.653281
v -0.513280 -0.382683 -0.768178
v -0.353553 -0.382683 -0.853553
v -0.180240 -0.382683 -0.906127
v -0.000000 -0.382683 -0.923880
v 0.180240 -0.382683 -0.906127
v 0.353553 -0.382683 -0.853553
v 0.513280 -0.382683 -0.768178
v 0.653281 -0.382683 -0.653281
v 0.768178 -0.382683 -0.513280
v 0.853553 -0.382683 -0.353553
v 0.906127 -0.382683 -0.180240
v 0.831470 -0.555570 0.000000
v 0.815493 -0.555570 0.162212
v 0.768178 -0.555570 0.318190
v 0.691342 -0.555570 0.461940
v 0.587938 -0.555570 0.587938
v 0.461940 -0.555570 0.691342
v 0.318190 -0.555570 0.768178
v 0.162212 -0.555570 0.815493
v 0.000000 -0.555570 0.831470
v -0.162212 -0.555570 0.815493
v -0.318190 -0.555570 0.768178
v -0.461940 -0.555570 0.691342
v -0.587938 -0.555570 0.587938
v -0.691342 -0.555570 0.461940
v -0.768178 -0.555570 0.318190
v -0.815493 -0.555570 0.162212
v -0.831470 -0.555570 0.000000
v -0.815493 -0.555570 -0.162212
v -0.768178 -0.555570 -0.318190
v -0.691342 -0.555570 -0.461940
v -0.587938 -0.555570 -0.587938
v -0.461940 -0.555570 -0.691342
v -0.318190 -0.555570 -0.768178
v -0.162212 -0.555570 -0.815493
v -0.000000 -0.555570 -0.831470
v 0.162212 -0.555570 -0.815493
v 0.318190 -0.555570 -0.768178
v 0.461940 -0.555570 -0.691342
v 0.587938 -0.555570 -0.587938
v 0.691342 -0.555570 -0.461940
v 0.768178 -0.555570 -0.318190
v 0.815493 -0.555570 -0.162212
v 0.707107 -0.707107 0.000000
v 0.693520 -0.707107 0.137950
v 0.653281 -0.707107 0.270598
v 0.587938 -0.707107 0.392847
v 0.500000 -0.707107 0.500000
v 0.392847 -0.707107 0.587938
v 0.270598 -0.707107 0.653281
v 0.137950 -0.707107 0.693520
v 0.000000 -0.707107 0.707107
v -0.137950 -0.707107 0.693520
v -0.270598 -0.707107 0.653281
v -0.392847 -0.707107 0.587938
v -0.500000 -0.707107 0.500000
v -0.587938 -0.707107 0.392847
v -0.653281 -0.707107 0.270598
v -0.693520 -0.707107 0.137950
v -0.707107 -0.707107 0.000000
v -0.693520 -0.707107 -0.137950
v -0.653281 -0.707107 -0.270598
v -0.587938 -0.707107 -0.392847
v -0.500000 -0.707107 -0.500000
v -0.392847 -0.707107 -0.587938
v -0.270598 -0.707107 -0.653281
v -0.137950 -0.707107 -0.693520
v -0.000000 -0.707107 -0.707107
v 0.137950 -0.707107 -0.693520
v 0.270598 -0.707107 -0.653281
v 0.392847 -0.707107 -0.587938
v 0.500000 -0.707107 -0.500000
v 0.587938 -0.707107 -0.392847
v 0.653281 -0.707107 -0.270598
v 0.693520 -0.707107 -0.137950
v 0.555570 -0.831470 0.000000
v 0.544895 -0.831470 0.108386
v 0.513280 -0.831470 0.212608
v 0.461940 -0.831470 0.308658
v 0.392847 -0.831470 0.392847
v 0.308658 -0.831470 0.461940
v 0.212608 -0.831470 0.513280
v 0.108386 -0.831470 0.544895
v 0.000000 -0.831470 0.555570
v -0.108386 -0.831470 0.544895
v -0.212608 -0.831470 0.513280
v -0.308658 -0.831470 0.461940
v -0.392847 -0.831470 0.392847
v -0.461940 -0.831470 0.308658
v -0.513280 -0.831470 0.212608
v -0.544895 -0.831470 0.108386
v -0.555570 -0.831470 0.000000
v -0.544895 -0.831470 -0.108386
v -0.513280 -0.831470 -0.212608
v -0.461940 -0.831470 -0.308658
v -0.392847 -0.831470 -0.392847
v -0.308658 -0.831470 -0.461940
v -0.212608 -0.831470 -0.513280
v -0.108386 -0.831470 -0.544895
v -0.000000 -0.831470 -0.555570
v 0.108386 -0.831470 -0.544895
v 0.212608 -0.831470 -0.513280
v 0.308658 -0.831470 -0.461940
v 0.392847 -0.831470 -0.392847
v 0.461940 -0.831470 -0.308658
v 0.513280 -0.831470 -0.212608
v 0.544895 -0.831470 -0.108386
v 0.382683 -0.923880 0.000000
v 0.375330 -0.923880 0.074658
v 0.353553 -0.923880 0.146447
v 0.318190 -0.923880 0.212608
v 0.270598 -0.923880 0.270598
v 0.212608 -0.923880 0.318190
v 0.146447 -0.923880 0.353553
v 0.074658 -0.923880 0.375330
v 0.000000 -0.923880 0.382683
v -0.074658 -0.923880 0.375330
v -0.146447 -0.923880 0.353553
v -0.212608 -0.923880 0.318190
v -0.270598 -0.923880 0.270598
v -0.318190 -0.923880 0.212608
v -0.353553 -0.923880 0.146447
v -0.375330 -0.923880 0.074658
v -0.382683 -0.923880 0.000000
v -0.375330 -0.923880 -0.074658
v -0.353553 -0.923880 -0.146447
v -0.318190 -0.923880 -0.212608
v -0.270598 -0.923880 -0.270598
v -0.212608 -0.923880 -0.318190
v -0.146447 -0.923880 -0.353553
v -0.074658 -0.923880 -0.375330
v -0.000000 -0.923880 -0.382683
v 0.074658 -0.923880 -0.375330
v 0.146447 -0.923880 -0.353553
v 0.212608 -0.923880 -0.318190
v 0.270598 -0.923880 -0.270598
v 0.318190 -0.923880 -0.212608
v 0.353553 -0.923880 -0.146447
v 0.375330 -0.923880 -0.074658
v 0.195090 -0.980785 0.000000
v 0.191342 -0.980785 0.038060
v 0.180240 -0.980785 0.074658
v 0.162212 -0.980785 0.108386
v 0.137950 -0.980785 0.137950
v 0.108386 -0.980785 0.162212
v 0.074658 -0.980785 0.180240
v 0.038060 -0.980785 0.191342
v 0.000000 -0.980785 0.195090
v -0.038060 -0.980785 0.191342
v -0.074658 -0.980785 0.180240
v -0.108386 -0.980785 0.162212
v -0.137950 -0.980785 0.137950
v -0.162212 -0.980785 0.108386
v -0.180240 -0.980785 0.074658
v -0.191342 -0.980785 0.038060
v -0.195090 -0.980785 0.000000
v -0.191342 -0.980785 -0.038060
v -0.180240 -0.980785 -0.074658
v -0.162212 -0.980785 -0.108386
v -0.137950 -0.980785 -0.137950
v -0.108386 -0.980785 -0.162212
v -0.074658 -0.980785 -0.180240
v -0.038060 -0.980785 -0.191342
v -0.000000 -0.980785 -0.195090
v 0.038060 -0.980785 -0.191342
v 0.074658 -0.980785 -0.180240
v 0.108386 -0.980785 -0.162212
v 0.137950 -0.980785 -0.137950
v 0.162212 -0.980785 -0.108386
v 0.180240 -0.980785 -0.074658
v 0.191342 -0.980785 -0.038060
v 0.000000 -1.000000 0.000000
v 0.000000 -1.000000 0.000000
v 0.000000 -1.000000 0.000000
v 0.000000 -1.000000 0.000000
v 0.000000 -1.000000 0.000000
v 0.000000 -1.000000 0.000000
v 0.000000 -1.000000 0.000000
v 0.000000 -1.000000 0.000000
v 0.000000 -1.000000 0.000000
v -0.000000 -1.000000 0.000000
v -0.000000 -1.000000 0.000000
v -0.000000 -1.000000 0.000000
v -0.000000 -1.000000 0.000000
v -0.000000 -1.000000 0.000000
v -0.000000 -1.000000 0.000000
v -0.000000 -1.000000 0.000000
v -0.000000 -1.000000 0.000000
v -0.000000 -1.000000 -0.000000
v -0.000000 -1.000000 -0.000000
v -0.000000 -1.000000 -0.000000
v -0.000000 -1.000000 -0.000000
v -0.000000 -1.000000 -0.000000
v -0.000000 -1.000000 -0.000000
v -0.000000 -1.000000 -0.000000
v -0.000000 -1.000000 -0.000000
v 0.000000 -1.000000 -0.000000
v 0.000000 -1.000000 -0.000000
v 0.000000 -1.000000 -0.000000
v 0.000000 -1.000000 -0.000000
v 0.000000 -1.000000 -0.000000
v 0.000000 -1.000000 -0.000000
v 0.000000 -1.000000 -0.000000
f 1 2 34
f 1 34 33
f 2 3 35
f 2 35 34
f 3 4 36
f 3 36 35
f 4 5 37
f 4 37 36
f 5 6 38
f 5 38 37
f 6 7 39
f 6 39 38
f 7 8 40
f 7 40 39
f 8 9 41
f 8 41 40
f 9 10 42
f 9 42 41
f 10 11 43
f 10 43 42
f 11 12 44
f 11 44 43
f 12 13 45
f 12 45 44
f 13 14 46
f 13 46 45
f 14 15 47
f 14 47 46
f 15 16 48
f 15 48 47
f 16 17 49
f 16 49 48
f 17 18 50
f 17 50 49
f 18 19 51
f 18 51 50
f 19 20 52
f 19 52 51
f 20 21 53
f 20 53 52
f 21 22 54
f 21 54 53
f 22 23 55
f 22 55 54
f 23 24 56
f 23 56 55
f 24 25 57
f 24 57 56
f 25 26 58
f 25 58 57
f 26 27 59
f 26 59 58
f 27 28 60
f 27 60 59
f 28 29 61
f 28 61 60
f 29 30 62
f 29 62 61
f 30 31 63
f 30 63 62
f 31 32 64
f 31 64 63
f 32 1 33
f 32 33 64
f 33 34 66
f 33 66 65
f 34 35 67
f 34 67 66
f 35 36 68
f 35 68 67
f 36 37 69
f 36 69 68
f 37 38 70
f 37 70 69
f 38 39 71
f 38 71 70
f 39 40 72
f 39 72 71
f 40 41 73
f 40 73 72
f 41 42 74
f 41 74 73
f 42 43 75
f 42 75 74
f 43 44 76
f 43 76 75
f 44 45 77
f 44 77 76
f 45 46 78
f 45 78 77
f 46 47 79
f 46 79 78
f 47 48 80
f 47 80 79
f 48 49 81
f 48 81 80
f 49 50 82
f 49 82 81
f 50 51 83
f 50 83 82
f 51 52 84
f 51 84 83
f 52 53 85
f 52 85 84
f 53 54 86
f 53 86 85
f 54 55 87
f 54 87 86
f 55 56 88
f 55 88 87
f 56 57 89
f 56 89 88
f 57 58 90
f 57 90 89
f 58 59 91
f 58 91 90
f 59 60 92
f 59 92 91
f 60 61 93
f 60 93 92
f 61 62 94
f 61 94 93
f 62 63 95
f 62 95 94
f 63 64 96
f 63 96 95
f 64 33 65
f 64 65 96
f 65 66 98
f 65 98 97
f 66 67 99
f 66 99 98
f 67 68 100
f 67 100 99
f 68 69 101
f 68 101 100
f 69 70 102
f 69 102 101
f 70 71 103
f 70 103 102
f 71 72 104
f 71 104 103
f 72 73 105
f 72 105 104
f 73 74 106
f 73 106 105
f 74 75 107
f 74 107 106
f 75 76 108
f 75 108 107
f 76 77 109
f 76 109 108
f 77 78 110
f 77 110 109
f 78 79 111
f 78 111 110
f 79 80 112
f 79 112 111
f 80 81 113
f 80 113 112
f 81 82 114
f 81 114 113
f 82 83 115
f 82 115 114
f 83 84 116
f 83 116 115
f 84 85 117
f 84 117 116
f 85 86 118
f 85 118 117
f 86 87 119
f 86 119 118
f 87 88 120
f 87 120 119
f 88 89 121
f 88 121 120
f 89 90 122
f 89 122 121
f 90 91 123
f 90 123 122
f 91 92 124
f 91 124 123
f 92 93 125
f 92 125 124
f 93 94 126
f 93 126 125
f 94 95 127
f 94 127 126
f 95 96 128
f 95 128 127
f 96 65 97
f 96 97 128
f 97 98 130
f 97 130 129
f 98 99 131
f 98 131 130
f 99 100 132
f 99 132 131
f 100 101 133
f 100 133 132
f 101 102 134
f 101 134 133
f 102 103 135
f 102 135 134
f 103 104 136
f 103 136 135
f 104 105 137
f 104 137 136
f 105 106 138
f 105 138 137
f 106 107 139
f 106 139 138
f 107 108 140
f 107 140 139
f 108 109 141
f 108 141 140
f 109 110 142
f 109 142 141
f 110 111 143
f 110 143 142
f 111 112 144
f 111 144 143
f 112 113 145
f 112 145 144
f 113 114 146
f 113 146 145
f 114 115 147
f 114 147 146
f 115 116 148
f 115 148 147
f 116 117 149
f 116 149 148
f 117 118 150
f 117 150 149
f 118 119 151
f 118 151 150
f 119 120 152
f 119 152 151
f 120 121 153
f 120 153 152
f 121 122 154
f 121 154 153
f 122 123 155
f 122 155 154
f 123 124 156
f 123 156 155
f 124 125 157
f 124 157 156
f 125 126 158
f 125 158 157
f 126 127 159
f 126 159 158
f 127 128 160
f 127 160 159
f 128 97 129
f 128 129 160
f 129 130 162
f 129 162 161
f 130 131 163
f 130 163 162
f 131 132 164
f 131 164 163
f 132 133 165
f 132 165 164
f 133 134 166
f 133 166 165
f 134 135 167
f 134 167 166
f 135 136 168
f 135 168 167
f 136 137 169
f 136 169 168
f 137 138 170
f 137 170 169
f 138 139 171
f 138 171 170
f 139 140 172
f 139 172 171
f 140 141 173
f 140 173 172
f 141 142 174
f 141 174 173
f 142 143 175
f 142 175 174
f 143 144 176
f 143 176 175
f 144 145 177
f 144 177 176
f 145 146 178
f 145 178 177
f 146 147 179
f 146 179 178
f 147 148 180
f 147 180 179
f 148 149 181
f 148 181 180
f 149 150 182
f 149 182 181
f 150 151 183
f 150 183 182
f 151 152 184
f 151 184 183
f 152 153 185
f 152 185 184
f 153 154 186
f 153 186 185
f 154 155 187
f 154 187 186
f 155 156 188
f 155 188 187
f 156 157 189
f 156 189 188
f 157 158 190
f 157 190 189
f 158 159 191
f 158 191 190
f 159 160 192
f 159 192 191
f 160 129 161
f 160 161 192
f 161 162 194
f 161 194 193
f 162 163 195
f 162 195 194
f 163 164 196
f 163 196 195
f 164 165 197
f 164 197 196
f 165 166 198
f 165 198 197
f 166 167 199
f 166 199 198
f 167 168 200
f 167 200 199
f 168 169 201
f 168 201 200
f 169 170 202
f 169 202 201
f 170 171 203
f 170 203 202
f 171 172 204
f 171 204 203
f 172 173 205
f 172 205 204
f 173 174 206
f 173 206 205
f 174 175 207
f 174 207 206
f 175 176 208
f 175 208 207
f 176 177 209
f 176 209 208
f 177 178 210
f 177 210 209
f 178 179 211
f 178 211 210
f 179 180 212
f 179 212 211
f 180 181 213
f 180 213 212
f 181 182 214
f 181 214 213
f 182 183 215
f 182 215 214
f 183 184 216
f 183 216 215
f 184 185 217
f 184 217 216
f 185 186 218
f 185 218 217
f 186 187 219
f 186 219 218
f 187 188 220
f 187 220 219
f 188 189 221
f 188 221 220
f 189 190 222
f 189 222 221
f 190 191 223
f 190 223 222
f 191 192 224
f 191 224 223
f 192 161 193
f 192 193 224
f 193 194 226
f 193 226 225
f 194 195 227
f 194 227 226
f 195 196 228
f 195 228 227
f 196 197 229
f 196 229 228
f 197 198 230
f 197 230 229
f 198 199 231
f 198 231 230
f 199 200 232
f 199 232 231
f 200 201 233
f 200 233 232
f 201 202 234
f 201 234 233
f 202 203 235
f 202 235 234
f 203 204 236
f 203 236 235
f 204 205 237
f 204 237 236
f 205 206 238
f 205 238 237
f 206 207 239
f 206 239 238
f 207 208 240
f 207 240 239
f 208 209 241
f 208 241 240
f 209 210 242
f 209 242 241
f 210 211 243
f 210 243 242
f 211 212 244
f 211 244 243
f 212 213 245
f 212 245 244
f 213 214 246
f 213 246 245
f 214 215 247
f 214 247 246
f 215 216 248
f 215 248 247
f 216 217 249
f 216 249 248
f 217 218 250
f 217 250 249
f 218 219 251
f 218 251 250
f 219 220 252
f 219 252 251
f 220 221 253
f 220 253 252
f 221 222 254
f 221 254 253
f 222 223 255
f 222 255 254
f 223 224 256
f 223 256 255
f 224 193 225
f 224 225 256
f 225 226 258
f 225 258 257
f 226 227 259
f 226 259 258
f 227 228 260
f 227 260 259
f 228 229 261
f 228 261 260
f 229 230 262
f 229 262 261
f 230 231 263
f 230 263 262
f 231 232 264
f 231 264 263
f 232 233 265
f 232 265 264
f 233 234 266
f 233 266 265
f 234 235 267
f 234 267 266
f 235 236 268
f 235 268 267
f 236 237 269
f 236 269 268
f 237 238 270
f 237 270 269
f 238 239 271
f 238 271 270
f 239 240 272
f 239 272 271
f 240 241 273
f 240 273 272
f 241 242 274
f 241 274 273
f 242 243 275
f 242 275 274
f 243 244 276
f 243 276 275
f 244 245 277
f 244 277 276
f 245 246 278
f 245 278 277
f 246 247 279
f 246 279 278
f 247 248 280
f 247 280 279
f 248 249 281
f 248 281 280
f 249 250 282
f 249 282 281
f 250 251 283
f 250 283 282
f 251 252 284
f 251 284 283
f 252 253 285
f 252 285 284
f 253 254 286
f 253 286 285
f 254 255 287
f 254 287 286
f 255 256 288
f 255 288 287
f 256 225 257
f 256 257 288
f 257 258 290
f 257 290 289
f 258 259 291
f 258 291 290
f 259 260 292
f 259 292 291
f 260 261 293
f 260 293 292
f 261 262 294
f 261 294 293
f 262 263 295
f 262 295 294
f 263 264 296
f 263 296 295
f 264 265 297
f 264 297 296
f 265 266 298
f 265 298 297
f 266 267 299
f 266 299 298
f 267 268 300
f 267 300 299
f 268 269 301
f 268 301 300
f 269 270 302
f 269 302 301
f 270 271 303
f 270 303 302
f 271 272 304
f 271 304 303
f 272 273 305
f 272 305 304
f 273 274 306
f 273 306 305
f 274 275 307
f 274 307 306
f 275 276 308
f 275 308 307
f 276 277 309
f 276 309 308
f 277 278 310
f 277 310 309
f 278 279 311
f 278 311 310
f 279 280 312
f 279 312 311
f 280 281 313
f 280 313 312
f 281 282 314
f 281 314 313
f 282 283 315
f 282 315 314
f 283 284 316
f 283 316 315
f 284 285 317
f 284 317 316
f 285 286 318
f 285 318 317
f 286 287 319
f 286 319 318
f 287 288 320
f 287 320 319
f 288 257 289
f 288 289 320
f 289 290 322
f 289 322 321
f 290 291 323
f 290 323 322
f 291 292 324
f 291 324 323
f 292 293 325
f 292 325 324
f 293 294 326
f 293 326 325
f 294 295 327
f 294 327 326
f 295 296 328
f 295 328 327
f 296 297 329
f 296 329 328
f 297 298 330
f 297 330 329
f 298 299 331
f 298 331 330
f 299 300 332
f 299 332 331
f 300 301 333
f 300 333 332
f 301 302 334
f 301 334 333
f 302 303 335
f 302 335 334
f 303 304 336
f 303 336 335
f 304 305 337
f 304 337 336
f 305 306 338
f 305 338 337
f 306 307 339
f 306 339 338
f 307 308 340
f 307 340 339
f 308 309 341
f 308 341 340
f 309 310 342
f 309 342 341
f 310 311 343
f 310 343 342
f 311 312 344
f 311 344 343
f 312 313 345
f 312 345 344
f 313 314 346
f 313 346 345
f 314 315 347
f 314 347 346
f 315 316 348
f 315 348 347
f 316 317 349
f 316 349 348
f 317 318 350
f 317 350 349
f 318 319 351
f 318 351 350
f 319 320 352
f 319 352 351
f 320 289 321
f 320 321 352
f 321 322 354
f 321 354 353
f 322 323 355
f 322 355 354
f 323 324 356
f 323 356 355
f 324 325 357
f 324 357 356
f 325 326 358
f 325 358 357
f 326 327 359
f 326 359 358
f 327 328 360
f 327 360 359
f 328 329 361
f 328 361 360
f 329 330 362
f 329 362 361
f 330 331 363
f 330 363 362
f 331 332 364
f 331 364 363
f 332 333 365
f 332 365 364
f 333 334 366
f 333 366 365
f 334 335 367
f 334 367 366
f 335 336 368
f 335 368 367
f 336 337 369
f 336 369 368
f 337 338 370
f 337 370 369
f 338 339 371
f 338 371 370
f 339 340 372
f 339 372 371
f 340 341 373
f 340 373 372
f 341 342 374
f 341 374 373
f 342 343 375
f 342 375 374
f 343 344 376
f 343 376 375
f 344 345 377
f 344 377 376
f 345 346 378
f 345 378 377
f 346 347 379
f 346 379 378
f 347 348 380
f 347 380 379
f 348 349 381
f 348 381 380
f 349 350 382
f 349 382 381
f 350 351 383
f 350 383 382
f 351 352 384
f 351 384 383
f 352 321 353
f 352 353 384
f 353 354 386
f 353 386 385
f 354 355 387
f 354 387 386
f 355 356 388
f 355 388 387
f 356 357 389
f 356 389 388
f 357 358 390
f 357 390 389
f 358 359 391
f 358 391 390
f 359 360 392
f 359 392 391
f 360 361 393
f 360 393 392
f 361 362 394
f 361 394 393
f 362 363 395
f 362 395 394
f 363 364 396
f 363 396 395
f 364 365 397
f 364 397 396
f 365 366 398
f 365 398 397
f 366 367 399
f 366 399 398
f 367 368 400
f 367 400 399
f 368 369 401
f 368 401 400
f 369 370 402
f 369 402 401
f 370 371 403
f 370 403 402
f 371 372 404
f 371 404 403
f 372 373 405
f 372 405 404
f 373 374 406
f 373 406 405
f 374 375 407
f 374 407 406
f 375 376 408
f 375 408 407
f 376 377 409
f 376 409 408
f 377 378 410
f 377 410 409
f 378 379 411
f 378 411 410
f 379 380 412
f 379 412 411
f 380 381 413
f 380 413 412
f 381 382 414
f 381 414 413
f 382 383 415
f 382 415 414
f 383 384 416
f 383 416 415
f 384 353 385
f 384 385 416
f 385 386 418
f 385 418 417
f 386 387 419
f 386 419 418
f 387 388 420
f 387 420 419
f 388 389 421
f 388 421 420
f 389 390 422
f 389 422 421
f 390 391 423
f 390 423 422
f 391 392 424
f 391 424 423
f 392 393 425
f 392 425 424
f 393 394 426
f 393 426 425
f 394 395 427
f 394 427 426
f 395 396 428
f 395 428 427
f 396 397 429
f 396 429 428
f 397 398 430
f 397 430 429
f 398 399 431
f 398 431 430
f 399 400 432
f 399 432 431
f 400 401 433
f 400 433 432
f 401 402 434
f 401 434 433
f 402 403 435
f 402 435 434
f 403 404 436
f 403 436 435
f 404 405 437
f 404 437 436
f 405 406 438
f 405 438 437
f 406 407 439
f 406 439 438
f 407 408 440
f 407 440 439
f 408 409 441
f 408 441 440
f 409 410 442
f 409 442 441
f 410 411 443
f 410 443 442
f 411 412 444
f 411 444 443
f 412 413 445
f 412 445 444
f 413 414 446
f 413 446 445
f 414 415 447
f 414 447 446
f 415 416 448
f 415 448 447
f 416 385 417
f 416 417 448
f 417 418 450
f 417 450 449
f 418 419 451
f 418 451 450
f 419 420 452
f 419 452 451
f 420 421 453
f 420 453 452
f 421 422 454
f 421 454 453
f 422 423 455
f 422 455 454
f 423 424 456
f 423 456 455
f 424 425 457
f 424 457 456
f 425 426 458
f 425 458 457
f 426 427 459
f 426 459 458
f 427 428 460
f 427 460 459
f 428 429 461
f 428 461 460
f 429 430 462
f 429 462 461
f 430 431 463
f 430 463 462
f 431 432 464
f 431 464 463
f 432 433 465
f 432 465 464
f 433 434 466
f 433 466 465
f 434 435 467
f 434 467 466
f 435 436 468
f 435 468 467
f 436 437 469
f 436 469 468
f 437 438 470
f 437 470 469
f 438 439 471
f 438 471 470
f 439 440 472
f 439 472 471
f 440 441 473
f 440 473 472
f 441 442 474
f 441 474 473
f 442 443 475
f 442 475 474
f 443 444 476
f 443 476 475
f 444 445 477
f 444 477 476
f 445 446 478
f 445 478 477
f 446 447 479
f 446 479 478
f 447 448 480
f 447 480 479
f 448 417 449
f 448 449 480
f 449 450 482
f 449 482 481
f 450 451 483
f 450 483 482
f 451 452 484
f 451 484 483
f 452 453 485
f 452 485 484
f 453 454 486
f 453 486 485
f 454 455 487
f 454 487 486
f 455 456 488
f 455 488 487
f 456 457 489
f 456 489 488
f 457 458 490
f 457 490 489
f 458 459 491
f 458 491 490
f 459 460 492
f 459 492 491
f 460 461 493
f 460 493 492
f 461 462 494
f 461 494 493
f 462 463 495
f 462 495 494
f 463 464 496
f 463 496 495
f 464 465 497
f 464 497 496
f 465 466 498
f 465 498 497
f 466 467 499
f 466 499 498
f 467 468 500
f 467 500 499
f 468 469 501
f 468 501 500
f 469 470 502
f 469 502 501
f 470 471 503
f 470 503 502
f 471 472 504
f 471 504 503
f 472 473 505
f 472 505 504
f 473 474 506
f 473 506 505
f 474 475 507
f 474 507 506
f 475 476 508
f 475 508 507
f 476 477 509
f 476 509 508
f 477 478 510
f 477 510 509
f 478 479 511
f 478 511 510
f 479 480 512
f 479 512 511
f 480 449 481
f 480 481 512
f 481 482 514
f 481 514 513
f 482 483 515
f 482 515 514
f 483 484 516
f 483 516 515
f 484 485 517
f 484 517 516
f 485 486 518
f 485 518 517
f 486 487 519
f 486 519 518
f 487 488 520
f 487 520 519
f 488 489 521
f 488 521 520
f 489 490 522
f 489 522 521
f 490 491 523
f 490 523 522
f 491 492 524
f 491 524 523
f 492 493 525
f 492 525 524
f 493 494 526
f 493 526 525
f 494 495 527
f 494 527 526
f 495 496 528
f 495 528 527
f 496 497 529
f 496 529 528
f 497 498 530
f 497 530 529
f 498 499 531
f 498 531 530
f 499 500 532
f 499 532 531
f 500 501 533
f 500 533 532
f 501 502 534
f 501 534 533
f 502 503 535
f 502 535 534
f 503 504 536
f 503 536 535
f 504 505 537
f 504 537 536
f 505 506 538
f 505 538 537
f 506 507 539
f 506 539 538
f 507 508 540
f 507 540 539
f 508 509 541
f 508 541 540
f 509 510 542
f 509 542 541
f 510 511 543
f 510 543 542
f 511 512 544
f 511 544 543
f 512 481 513
f 512 513 544